<mxfile host="65bd71144e">
    <diagram id="qbdv0IzRGVz_0QFbCluS" name="Page-1">
        <mxGraphModel dx="1787" dy="1401" grid="0" gridSize="10" guides="1" tooltips="1" connect="1" arrows="1" fold="1" page="1" pageScale="1" pageWidth="850" pageHeight="1100" math="0" shadow="0">
            <root>
                <mxCell id="0"/>
                <mxCell id="1" parent="0"/>
                <mxCell id="44" value="" style="rounded=1;whiteSpace=wrap;html=1;fillColor=#FBFFF5;" vertex="1" parent="1">
                    <mxGeometry x="83" y="60" width="696" height="491" as="geometry"/>
                </mxCell>
                <mxCell id="18" value="x0" style="text;html=1;strokeColor=none;fillColor=none;align=center;verticalAlign=middle;whiteSpace=wrap;rounded=0;" parent="1" vertex="1">
                    <mxGeometry x="670" y="743" width="60" height="30" as="geometry"/>
                </mxCell>
                <mxCell id="19" value="x1" style="text;html=1;strokeColor=none;fillColor=none;align=center;verticalAlign=middle;whiteSpace=wrap;rounded=0;" parent="1" vertex="1">
                    <mxGeometry x="730" y="743" width="60" height="30" as="geometry"/>
                </mxCell>
                <mxCell id="20" value="s" style="text;html=1;strokeColor=none;fillColor=none;align=center;verticalAlign=middle;whiteSpace=wrap;rounded=0;" parent="1" vertex="1">
                    <mxGeometry x="670" y="773" width="60" height="30" as="geometry"/>
                </mxCell>
                <mxCell id="21" value="q" style="text;html=1;strokeColor=none;fillColor=none;align=center;verticalAlign=middle;whiteSpace=wrap;rounded=0;" parent="1" vertex="1">
                    <mxGeometry x="730" y="773" width="60" height="30" as="geometry"/>
                </mxCell>
                <mxCell id="22" value="RESPONDER AQUI DENTRO" style="text;html=1;align=center;verticalAlign=middle;resizable=0;points=[];autosize=1;strokeColor=none;fillColor=none;" parent="1" vertex="1">
                    <mxGeometry x="514" y="506" width="190" height="30" as="geometry"/>
                </mxCell>
                <mxCell id="23" value="Componentes que podem ser usados!&amp;nbsp;" style="text;html=1;strokeColor=none;fillColor=none;align=center;verticalAlign=middle;whiteSpace=wrap;rounded=0;" parent="1" vertex="1">
                    <mxGeometry x="268" y="576" width="320" height="30" as="geometry"/>
                </mxCell>
                <mxCell id="3" value="" style="verticalLabelPosition=bottom;shadow=0;dashed=0;align=center;html=1;verticalAlign=top;shape=mxgraph.electrical.logic_gates.buffer2;fillColor=#FFFFFF;" parent="1" vertex="1">
                    <mxGeometry x="70" y="713" width="100" height="60" as="geometry"/>
                </mxCell>
                <mxCell id="4" value="" style="verticalLabelPosition=bottom;shadow=0;dashed=0;align=center;html=1;verticalAlign=top;shape=mxgraph.electrical.logic_gates.logic_gate;operation=and;negating=1;negSize=0.15;fillColor=#FFFFFF;" parent="1" vertex="1">
                    <mxGeometry x="190" y="633" width="100" height="60" as="geometry"/>
                </mxCell>
                <mxCell id="5" value="" style="verticalLabelPosition=bottom;shadow=0;dashed=0;align=center;html=1;verticalAlign=top;shape=mxgraph.electrical.logic_gates.logic_gate;operation=and;fillColor=#FFFFFF;" parent="1" vertex="1">
                    <mxGeometry x="70" y="633" width="100" height="60" as="geometry"/>
                </mxCell>
                <mxCell id="6" value="" style="verticalLabelPosition=bottom;shadow=0;dashed=0;align=center;html=1;verticalAlign=top;shape=mxgraph.electrical.logic_gates.logic_gate;operation=or;fillColor=#FFFFFF;" parent="1" vertex="1">
                    <mxGeometry x="320" y="713" width="100" height="60" as="geometry"/>
                </mxCell>
                <mxCell id="7" value="" style="verticalLabelPosition=bottom;shadow=0;dashed=0;align=center;html=1;verticalAlign=top;shape=mxgraph.electrical.logic_gates.logic_gate;operation=xor;fillColor=#FFFFFF;" parent="1" vertex="1">
                    <mxGeometry x="310" y="633" width="100" height="60" as="geometry"/>
                </mxCell>
                <mxCell id="8" value="" style="verticalLabelPosition=bottom;shadow=0;dashed=0;align=center;html=1;verticalAlign=top;shape=mxgraph.electrical.logic_gates.logic_gate;operation=xor;negating=1;negSize=0.15;fillColor=#FFFFFF;" parent="1" vertex="1">
                    <mxGeometry x="200" y="713" width="100" height="60" as="geometry"/>
                </mxCell>
                <mxCell id="13" value="" style="shape=flexArrow;endArrow=classic;html=1;entryX=0.104;entryY=0.208;entryDx=0;entryDy=0;entryPerimeter=0;fillColor=#FFFFFF;" parent="1" edge="1">
                    <mxGeometry width="50" height="50" relative="1" as="geometry">
                        <mxPoint x="670" y="662.78" as="sourcePoint"/>
                        <mxPoint x="809.9200000000001" y="662.6199999999999" as="targetPoint"/>
                    </mxGeometry>
                </mxCell>
                <mxCell id="15" value="" style="endArrow=classic;html=1;fillColor=#FFFFFF;entryX=0.104;entryY=0.229;entryDx=0;entryDy=0;entryPerimeter=0;" parent="1" edge="1">
                    <mxGeometry width="50" height="50" relative="1" as="geometry">
                        <mxPoint x="670" y="713.0799999999999" as="sourcePoint"/>
                        <mxPoint x="799.9200000000001" y="712.9999999999998" as="targetPoint"/>
                    </mxGeometry>
                </mxCell>
                <mxCell id="33" value="" style="group" vertex="1" connectable="0" parent="1">
                    <mxGeometry x="450" y="643" width="60.129999999999995" height="100" as="geometry"/>
                </mxCell>
                <mxCell id="24" value="" style="endArrow=none;html=1;" edge="1" parent="33">
                    <mxGeometry width="50" height="50" relative="1" as="geometry">
                        <mxPoint y="70" as="sourcePoint"/>
                        <mxPoint y="30" as="targetPoint"/>
                    </mxGeometry>
                </mxCell>
                <mxCell id="25" value="" style="endArrow=none;html=1;" edge="1" parent="33">
                    <mxGeometry width="50" height="50" relative="1" as="geometry">
                        <mxPoint x="60.129999999999995" y="100" as="sourcePoint"/>
                        <mxPoint x="60.129999999999995" as="targetPoint"/>
                    </mxGeometry>
                </mxCell>
                <mxCell id="26" value="" style="endArrow=none;html=1;" edge="1" parent="33">
                    <mxGeometry width="50" height="50" relative="1" as="geometry">
                        <mxPoint x="0.12999999999999545" y="30" as="sourcePoint"/>
                        <mxPoint x="60.129999999999995" as="targetPoint"/>
                    </mxGeometry>
                </mxCell>
                <mxCell id="27" value="" style="endArrow=none;html=1;" edge="1" parent="33">
                    <mxGeometry width="50" height="50" relative="1" as="geometry">
                        <mxPoint x="0.12999999999999545" y="70" as="sourcePoint"/>
                        <mxPoint x="60.129999999999995" y="100" as="targetPoint"/>
                    </mxGeometry>
                </mxCell>
                <mxCell id="35" value="demux" style="text;html=1;align=center;verticalAlign=middle;resizable=0;points=[];autosize=1;strokeColor=none;fillColor=none;" vertex="1" parent="33">
                    <mxGeometry x="0.06999999999999318" y="35" width="60" height="30" as="geometry"/>
                </mxCell>
                <mxCell id="43" value="" style="endArrow=classic;html=1;" edge="1" parent="33">
                    <mxGeometry width="50" height="50" relative="1" as="geometry">
                        <mxPoint x="29.940000000000055" y="120" as="sourcePoint"/>
                        <mxPoint x="29.940000000000055" y="90" as="targetPoint"/>
                    </mxGeometry>
                </mxCell>
                <mxCell id="36" value="" style="group;rotation=-180;" vertex="1" connectable="0" parent="1">
                    <mxGeometry x="551" y="646" width="60.129999999999995" height="100" as="geometry"/>
                </mxCell>
                <mxCell id="37" value="" style="endArrow=none;html=1;" edge="1" parent="36">
                    <mxGeometry width="50" height="50" relative="1" as="geometry">
                        <mxPoint x="60" y="30" as="sourcePoint"/>
                        <mxPoint x="60" y="70" as="targetPoint"/>
                    </mxGeometry>
                </mxCell>
                <mxCell id="38" value="" style="endArrow=none;html=1;" edge="1" parent="36">
                    <mxGeometry width="50" height="50" relative="1" as="geometry">
                        <mxPoint as="sourcePoint"/>
                        <mxPoint y="100" as="targetPoint"/>
                    </mxGeometry>
                </mxCell>
                <mxCell id="39" value="" style="endArrow=none;html=1;" edge="1" parent="36">
                    <mxGeometry width="50" height="50" relative="1" as="geometry">
                        <mxPoint x="60" y="70" as="sourcePoint"/>
                        <mxPoint y="100" as="targetPoint"/>
                    </mxGeometry>
                </mxCell>
                <mxCell id="40" value="" style="endArrow=none;html=1;" edge="1" parent="36">
                    <mxGeometry width="50" height="50" relative="1" as="geometry">
                        <mxPoint x="60" y="30" as="sourcePoint"/>
                        <mxPoint as="targetPoint"/>
                    </mxGeometry>
                </mxCell>
                <mxCell id="41" value="mux" style="text;html=1;align=center;verticalAlign=middle;resizable=0;points=[];autosize=1;strokeColor=none;fillColor=none;" vertex="1" parent="36">
                    <mxGeometry x="5.069999999999993" y="35" width="50" height="30" as="geometry"/>
                </mxCell>
                <mxCell id="42" value="" style="endArrow=classic;html=1;" edge="1" parent="36">
                    <mxGeometry width="50" height="50" relative="1" as="geometry">
                        <mxPoint x="29.940000000000055" y="120" as="sourcePoint"/>
                        <mxPoint x="29.940000000000055" y="90" as="targetPoint"/>
                    </mxGeometry>
                </mxCell>
            </root>
        </mxGraphModel>
    </diagram>
</mxfile>